<svg xmlns="http://www.w3.org/2000/svg" viewBox="0 0 512 512">
  <rect x="0" y="0" width="512" height="512" fill="#8b358d"/>
  <path fill="#ffffff" d="m 356.59416,466.58979 c -13.67784,-0.67947 -27.16791,-3.18253 -38.38915,-7.12301 -21.50764,-7.5526 -38.1205,-21.14716 -48.61943,-39.78596 -5.08116,-9.02061 -9.02203,-21.19191 -10.71588,-33.09591 -0.76939,-5.40701 -1.44732,-13.53584 -1.44964,-17.38161 v -2.40668 h 33.69359 33.69359 v 2.81457 c 0,6.45836 1.34713,14.82457 3.27684,20.35036 4.09649,11.7305 11.80527,18.66585 23.99892,21.59102 4.06238,0.97455 9.52841,1.59548 14.03222,1.59401 20.94715,-0.007 35.8743,-12.57334 40.34057,-33.96099 1.60032,-7.66332 1.54816,-3.77746 1.67955,-125.14663 l 0.1239,-115.78828 h 33.33344 33.33341 l -0.11399,117.74929 c -0.12326,127.33535 0,118.79269 -1.86987,128.955 -2.82292,15.33678 -9.1014,29.89477 -18.11025,41.9924 -3.57947,4.8067 -13.1579,14.43448 -17.78968,17.88131 -17.82395,13.26398 -38.55142,20.3904 -63.38973,21.7943 -6.91118,0.39064 -8.59265,0.38739 -17.05841,-0.0332 z M 155.26819,354.30581 C 126.06826,352.79424 101.92849,344.17014 81.819732,328.06582 73.920919,321.73998 64.367415,311.36506 58.05869,302.2618 45.525138,284.17637 36.944469,261.33885 33.007417,235.58772 30.667014,220.27984 30.182789,210.53858 30.399141,183.11784 30.574383,160.90754 30.758967,157.27416 32.2709,146.27296 36.831515,113.08889 48.550181,85.039958 66.681255,63.910852 70.109228,59.91609 78.056424,52.158774 81.740116,49.211829 95.965189,37.831796 112.02477,29.94659 129.77516,25.626762 c 10.24156,-2.492449 19.39873,-3.606804 31.73259,-3.861621 36.78395,-0.759956 66.33775,8.033229 90.02624,26.785641 4.67585,3.701529 13.225,12.256311 16.95333,16.964529 13.96162,17.630984 22.57837,39.605559 25.85956,65.947439 0.27996,2.2477 0.50904,4.21316 0.50904,4.36769 0,0.15453 -15.0067,0.28096 -33.34824,0.28096 -26.37384,0 -33.37452,-0.0932 -33.47392,-0.44568 -0.0691,-0.24513 -0.31055,-2.29081 -0.53646,-4.54596 -1.28374,-12.81449 -5.1738,-24.79001 -10.78363,-33.19731 -8.17402,-12.250136 -21.85362,-19.200935 -41.36638,-21.018827 -6.75933,-0.629729 -19.35923,-0.267351 -24.49207,0.704395 -12.01224,2.274155 -21.30144,7.030245 -29.29819,15.000728 -13.77017,13.724974 -21.25742,36.066674 -23.181801,69.173964 -0.601492,10.34799 -0.238423,53.56981 0.51517,61.3259 2.345041,24.13595 7.225621,40.93835 15.483041,53.30361 3.03385,4.54311 9.44704,11.03499 13.66694,13.83463 7.44946,4.94222 16.32385,7.99807 26.66892,9.18334 4.98238,0.57086 19.93973,0.24458 24.98229,-0.54491 14.17751,-2.21975 24.06122,-6.71601 31.74638,-14.44189 6.72574,-6.7614 11.39617,-16.02771 14.02167,-27.81947 0.90192,-4.05071 2.0091,-11.52727 2.0091,-13.567 v -1.05138 h 33.51842 33.51846 l -0.2088,2.05014 c -1.97969,19.44102 -5.65792,33.12101 -12.67835,47.1532 -3.31562,6.62715 -7.08332,12.64526 -11.38419,18.18384 -3.14598,4.05133 -10.74632,11.92664 -14.95496,15.49598 -21.56532,18.28967 -48.33058,27.82025 -82.63265,29.42392 -8.09324,0.37837 -9.95134,0.37765 -17.37848,-0.007 z" />
  <path fill="#000000" d="m 96.896522,511.73257 c 0.04224,-0.4884 70.752048,-87.26465 71.107808,-87.26465 0.35576,0 71.0656,86.77625 71.10781,87.26465 0.0128,0.14707 -31.98581,0.26742 -71.10781,0.26742 -39.122,0 -71.1205,-0.12035 -71.107808,-0.26742 z M 511.17978,256.14662 V 0.29326828 L 475.60887,44.090917 c -19.564,24.088703 -35.72636,43.79765 -35.91637,43.79765 -0.32146,0 -70.35153,-85.8910591 -71.14998,-87.26461661 C 368.19756,0.03057238 371.70105,-5e-6 440.03632,-5e-6 h 71.85656 V 255.99997 c 0,170.42895 -0.1192,256.00002 -0.35655,256.00002 -0.23735,0 -0.35655,-85.52222 -0.35655,-255.85337 z" />
</svg>
